<svg xmlns="http://www.w3.org/2000/svg" viewBox="0 0 48 48">
    <path fill="#e60026" fill-rule="nonezero" d="m28.267604,25.46411c0,2.060609 -1.681444,3.737253 -3.746852,3.737253c-2.292587,0 -3.55647,-2.083006 -3.76125,-4.015627c-0.390364,-3.686057 1.540657,-5.692271 3.2301,-6.724175c0.686336,-0.417561 1.438266,-0.743931 2.225393,-0.982309c0,0 1.820631,5.778663 1.963018,6.67618c0.156785,0.988708 0.089592,1.308678 0.089592,1.308678m8.949568,-11.590923c-2.014213,-1.305479 -4.482783,-2.022212 -7.024947,-2.1502l-0.567947,-2.076607l0.017598,0.020798c-0.022398,-0.062394 -0.041596,-0.123189 -0.060794,-0.182383l-0.167984,-0.614343c-0.387164,-1.775835 0.316771,-2.622156 0.678337,-2.926128c0.062394,-0.046396 0.124788,-0.094391 0.193582,-0.139187c1.659046,-1.100698 4.018827,0.663938 4.151614,0.767929c1.047903,1.007906 2.964525,1.257483 3.999628,0.225579c1.044703,-1.041503 0.798326,-2.991722 -0.246377,-4.033225c-1.627049,-1.622249 -6.621785,-4.225207 -10.87259,-1.39987c-3.820445,2.538964 -3.897238,6.113032 -3.268496,8.17844l0.763129,2.79334c-1.278281,0.366366 -2.500568,0.891117 -3.620464,1.574254c-4.182011,2.554963 -6.279416,6.868162 -5.756265,11.8325c0.54235,5.093927 4.359595,8.794383 9.085556,8.794383c5.015534,0 9.098355,-4.071622 9.098355,-9.074357c-0.067194,-1.193489 -0.054395,-1.18069 -0.21278,-2.247791c-0.158385,-1.041503 -1.700642,-5.937048 -1.700642,-5.937048c0.947112,0.21758 1.83183,0.574347 2.596559,1.068701c8.627998,5.59148 5.036332,14.493053 4.876347,14.880217c-2.374179,5.687471 -7.559298,9.082356 -14.216279,9.314334c-4.338797,0.153586 -8.49681,-1.463864 -11.707712,-4.554777c-3.385285,-3.258897 -5.325905,-7.823273 -5.325905,-12.523636c0,-7.077742 4.465185,-13.507545 11.109368,-15.993714c1.383871,-0.516752 2.500568,-1.991815 1.735839,-3.705256c-0.601544,-1.347075 -2.231793,-1.809432 -3.617264,-1.28948c-8.72079,3.262097 -14.581045,11.698113 -14.581045,20.98845c0,6.140229 2.537364,12.104475 6.960953,16.363279c4.081221,3.926035 9.330333,6.063437 14.857819,6.061837c0.251177,0 0.503953,-0.0032 0.75513,-0.012799c8.71119,-0.305572 15.801732,-5.013934 18.958238,-12.570032c1.974217,-4.589973 3.073314,-14.976208 -6.89056,-21.433208" />
</svg>
