<svg xmlns="http://www.w3.org/2000/svg" viewBox="571 206 30 30">
    <path fill="#898989" d="M598,227 L582,227 C580.896,227 580,227.896 580,229 C580,230.104 580.896,231 582,231 L598,231 C599.104,231 600,230.104 600,229 C600,227.896 599.104,227 598,227 L598,227 Z M598,219 L582,219 C580.896,219 580,219.896 580,221 C580,222.104 580.896,223 582,223 L598,223 C599.104,223 600,222.104 600,221 C600,219.896 599.104,219 598,219 L598,219 Z M582,215 L598,215 C599.104,215 600,214.104 600,213 C600,211.896 599.104,211 598,211 L582,211 C580.896,211 580,211.896 580,213 C580,214.104 580.896,215 582,215 L582,215 Z M574,226 C572.343,226 571,227.343 571,229 C571,230.657 572.343,232 574,232 C575.657,232 577,230.657 577,229 C577,227.343 575.657,226 574,226 L574,226 Z M574,218 C572.343,218 571,219.343 571,221 C571,222.657 572.343,224 574,224 C575.657,224 577,222.657 577,221 C577,219.343 575.657,218 574,218 L574,218 Z M574,210 C572.343,210 571,211.343 571,213 C571,214.657 572.343,216 574,216 C575.657,216 577,214.657 577,213 C577,211.343 575.657,210 574,210 L574,210 Z" />
</svg>
