<svg viewBox="0 0 24 24" xmlns="http://www.w3.org/2000/svg">
	<g fill="#898989">
		<path d="M2,20c-0.6,0-1-0.4-1-1v-4c0-0.6,0.4-1,1-1s1,0.4,1,1v4C3,19.6,2.6,20,2,20z"/>
		<path d="M6,20c-0.6,0-1-0.4-1-1v-6c0-0.6,0.4-1,1-1s1,0.4,1,1v6C7,19.6,6.6,20,6,20z"/>
		<path d="M10,20c-0.6,0-1-0.4-1-1v-8c0-0.6,0.4-1,1-1s1,0.4,1,1v8C11,19.6,10.6,20,10,20z"/>
		<path d="M14,20c-0.6,0-1-0.4-1-1V9c0-0.6,0.4-1,1-1s1,0.4,1,1v10C15,19.6,14.6,20,14,20z"/>
		<path d="M18,20c-0.6,0-1-0.4-1-1V7c0-0.6,0.4-1,1-1s1,0.4,1,1v12C19,19.6,18.6,20,18,20z"/>
		<path d="M22,20c-0.6,0-1-0.4-1-1V5c0-0.6,0.4-1,1-1s1,0.4,1,1v14C23,19.6,22.6,20,22,20z"/>
	</g>
</svg>