<?xml version="1.0" encoding="utf-8"?>
<!-- Generator: Adobe Illustrator 15.0.0, SVG Export Plug-In . SVG Version: 6.00 Build 0)  -->
<!DOCTYPE svg PUBLIC "-//W3C//DTD SVG 1.1//EN" "http://www.w3.org/Graphics/SVG/1.1/DTD/svg11.dtd">
<svg xmlns="http://www.w3.org/2000/svg" viewBox="0 0 64 64">
	<g fill="#898989">
		<path d="M9.875,17.815v28.217h9.104l20.599,15.56V2.408L19.181,17.815H9.875z M18.623,44.352h-7.066V19.495h7.066
			V44.352z"/>
		<path d="M50.142,19.202l-1.168-1.64l-1.188,1.627c-0.266,0.365-0.539,0.722-0.808,1.06l-0.662,0.836l0.604,0.892
			c1.954,2.838,2.988,6.131,2.988,9.523c0,3.895-1.297,7.57-3.749,10.629l-0.703,0.876l0.952,1.267
			c0.143,0.164,0.29,0.317,0.438,0.461c0.082,0.082,0.161,0.163,0.254,0.265l1.136,1.209l1.048-1.28
			c3.166-3.855,4.841-8.498,4.841-13.426C54.126,27.09,52.747,22.837,50.142,19.202z"/>
	</g>
</svg>
